<svg width="48" height="48" viewBox="0 0 48 48" fill="none" xmlns="http://www.w3.org/2000/svg">
<g filter="url(#filter0_i_0_622)">
<circle cx="24" cy="24" r="24" fill="#68A4A4"/>
</g>
<circle opacity="0.25" cx="13.0909" cy="13.0909" r="13.0909" transform="matrix(-1 0 0 1 37.6365 10.9091)" fill="url(#paint0_linear_0_622)"/>
<path fill-rule="evenodd" clip-rule="evenodd" d="M27.3376 25.6364C28.3057 25.6364 29.0767 24.9 29.0767 24C29.0767 23.0946 28.3057 22.3636 27.3376 22.3636C26.3696 22.3636 25.5985 23.0946 25.5985 24C25.5985 24.9 26.3696 25.6364 27.3376 25.6364ZM5.1177 25.5764V23.7491L6.03508 25.1782H6.14765L7.06504 23.7491V25.5764H7.81921V22.4182H7.06504L6.09137 23.9018L5.1177 22.4182H4.36353V25.5764H5.1177ZM13.6725 25.5764V24.5127L14.8431 22.4182H14.0383L13.2954 23.7873L12.5581 22.4182H11.7533L12.9239 24.5127V25.5764H13.6725ZM19.5314 24.48V25.5764H18.7772V22.4182H19.5314V23.8146H20.7302V22.4182H21.4843V25.5764H20.7302V24.48H19.5314ZM26.3808 24C26.3808 24.5236 26.8029 24.9655 27.3376 24.9655C27.8723 24.9655 28.2944 24.5236 28.2944 24C28.2944 23.4655 27.8723 23.0346 27.3376 23.0346C26.8029 23.0346 26.3808 23.4655 26.3808 24ZM33.9451 25.5764V23.7491L34.8624 25.1782H34.975L35.8924 23.7491V25.5764H36.6466V22.4182H35.8924L34.9187 23.9018L33.9451 22.4182H33.1909V25.5764H33.9451ZM43.0908 24.9055V25.5764H40.817V22.4182H43.0908V23.0891H41.5712V23.6891H42.9726V24.36H41.5712V24.9055H43.0908Z" fill="white"/>
<defs>
<filter id="filter0_i_0_622" x="0" y="0" width="48" height="48" filterUnits="userSpaceOnUse" color-interpolation-filters="sRGB">
<feFlood flood-opacity="0" result="BackgroundImageFix"/>
<feBlend mode="normal" in="SourceGraphic" in2="BackgroundImageFix" result="shape"/>
<feColorMatrix in="SourceAlpha" type="matrix" values="0 0 0 0 0 0 0 0 0 0 0 0 0 0 0 0 0 0 127 0" result="hardAlpha"/>
<feOffset/>
<feGaussianBlur stdDeviation="17.5"/>
<feComposite in2="hardAlpha" operator="arithmetic" k2="-1" k3="1"/>
<feColorMatrix type="matrix" values="0 0 0 0 0 0 0 0 0 0 0 0 0 0 0 0 0 0 0.0452633 0"/>
<feBlend mode="normal" in2="shape" result="effect1_innerShadow_0_622"/>
</filter>
<linearGradient id="paint0_linear_0_622" x1="13.0909" y1="-13.0909" x2="-13.0909" y2="13.0909" gradientUnits="userSpaceOnUse">
<stop stop-color="white"/>
<stop offset="1" stop-color="white" stop-opacity="0.01"/>
</linearGradient>
</defs>
</svg>
